<mxfile host="app.diagrams.net" agent="Mozilla/5.0 (Windows NT 10.0; Win64; x64) AppleWebKit/537.36 (KHTML, like Gecko) Chrome/131.0.0.0 Safari/537.36 Edg/131.0.0.0" version="25.0.3">
  <diagram name="Page-1" id="oXzqOnqRrlNYsaZt06Ob">
    <mxGraphModel dx="2026" dy="1146" grid="1" gridSize="10" guides="1" tooltips="1" connect="1" arrows="1" fold="1" page="1" pageScale="1" pageWidth="850" pageHeight="1100" math="0" shadow="0">
      <root>
        <mxCell id="0" />
        <mxCell id="1" parent="0" />
        <mxCell id="4kDKlUOtYcbysC6qOFbE-1" value="" style="edgeStyle=orthogonalEdgeStyle;rounded=0;orthogonalLoop=1;jettySize=auto;html=1;" edge="1" parent="1" source="4kDKlUOtYcbysC6qOFbE-6" target="4kDKlUOtYcbysC6qOFbE-8">
          <mxGeometry relative="1" as="geometry" />
        </mxCell>
        <mxCell id="4kDKlUOtYcbysC6qOFbE-2" value="Azure OpenAI Models&amp;nbsp;" style="rounded=0;whiteSpace=wrap;html=1;" vertex="1" parent="1">
          <mxGeometry x="380" y="630" width="120" height="60" as="geometry" />
        </mxCell>
        <mxCell id="4kDKlUOtYcbysC6qOFbE-3" style="edgeStyle=orthogonalEdgeStyle;rounded=0;orthogonalLoop=1;jettySize=auto;html=1;exitX=0.5;exitY=1;exitDx=0;exitDy=0;entryX=0.5;entryY=0;entryDx=0;entryDy=0;" edge="1" parent="1" source="4kDKlUOtYcbysC6qOFbE-6" target="4kDKlUOtYcbysC6qOFbE-2">
          <mxGeometry relative="1" as="geometry" />
        </mxCell>
        <mxCell id="4kDKlUOtYcbysC6qOFbE-4" style="edgeStyle=orthogonalEdgeStyle;rounded=0;orthogonalLoop=1;jettySize=auto;html=1;exitX=0.5;exitY=1;exitDx=0;exitDy=0;entryX=0.5;entryY=0;entryDx=0;entryDy=0;" edge="1" parent="1" source="4kDKlUOtYcbysC6qOFbE-6" target="4kDKlUOtYcbysC6qOFbE-9">
          <mxGeometry relative="1" as="geometry" />
        </mxCell>
        <mxCell id="4kDKlUOtYcbysC6qOFbE-5" value="" style="edgeStyle=orthogonalEdgeStyle;rounded=0;orthogonalLoop=1;jettySize=auto;html=1;" edge="1" parent="1" source="4kDKlUOtYcbysC6qOFbE-6" target="4kDKlUOtYcbysC6qOFbE-20">
          <mxGeometry relative="1" as="geometry" />
        </mxCell>
        <mxCell id="4kDKlUOtYcbysC6qOFbE-6" value="Safeguards" style="rounded=0;whiteSpace=wrap;html=1;" vertex="1" parent="1">
          <mxGeometry x="390" y="450" width="120" height="60" as="geometry" />
        </mxCell>
        <mxCell id="4kDKlUOtYcbysC6qOFbE-7" value="Customer Sources&amp;nbsp;&lt;div&gt;[Azure AI Search - Bing Custom Search-&amp;nbsp;&lt;br&gt;Azure OpenAI Endpoints ]&lt;/div&gt;" style="whiteSpace=wrap;html=1;rounded=0;" vertex="1" parent="1">
          <mxGeometry x="520" y="630" width="210" height="60" as="geometry" />
        </mxCell>
        <mxCell id="4kDKlUOtYcbysC6qOFbE-8" value="Healthcare Agent Serivce" style="whiteSpace=wrap;html=1;rounded=0;" vertex="1" parent="1">
          <mxGeometry x="230" y="390" width="430" height="60" as="geometry" />
        </mxCell>
        <mxCell id="4kDKlUOtYcbysC6qOFbE-9" value="Health AI Actions&lt;div&gt;[Clinical Coder ..]&lt;/div&gt;" style="rounded=0;whiteSpace=wrap;html=1;" vertex="1" parent="1">
          <mxGeometry x="230" y="630" width="120" height="60" as="geometry" />
        </mxCell>
        <mxCell id="4kDKlUOtYcbysC6qOFbE-10" value="" style="edgeStyle=orthogonalEdgeStyle;rounded=0;orthogonalLoop=1;jettySize=auto;html=1;" edge="1" parent="1" source="4kDKlUOtYcbysC6qOFbE-15" target="4kDKlUOtYcbysC6qOFbE-16">
          <mxGeometry relative="1" as="geometry">
            <Array as="points">
              <mxPoint x="1180" y="475" />
              <mxPoint x="1040" y="475" />
            </Array>
          </mxGeometry>
        </mxCell>
        <mxCell id="4kDKlUOtYcbysC6qOFbE-11" value="" style="edgeStyle=orthogonalEdgeStyle;rounded=0;orthogonalLoop=1;jettySize=auto;html=1;" edge="1" parent="1" source="4kDKlUOtYcbysC6qOFbE-15" target="4kDKlUOtYcbysC6qOFbE-17">
          <mxGeometry relative="1" as="geometry">
            <Array as="points">
              <mxPoint x="1180" y="475" />
              <mxPoint x="1190" y="475" />
            </Array>
          </mxGeometry>
        </mxCell>
        <mxCell id="4kDKlUOtYcbysC6qOFbE-12" value="" style="edgeStyle=orthogonalEdgeStyle;rounded=0;orthogonalLoop=1;jettySize=auto;html=1;" edge="1" parent="1" source="4kDKlUOtYcbysC6qOFbE-15" target="4kDKlUOtYcbysC6qOFbE-18">
          <mxGeometry relative="1" as="geometry">
            <Array as="points">
              <mxPoint x="1180" y="475" />
              <mxPoint x="1335" y="475" />
            </Array>
          </mxGeometry>
        </mxCell>
        <mxCell id="4kDKlUOtYcbysC6qOFbE-13" value="" style="edgeStyle=orthogonalEdgeStyle;rounded=0;orthogonalLoop=1;jettySize=auto;html=1;" edge="1" parent="1" source="4kDKlUOtYcbysC6qOFbE-15" target="4kDKlUOtYcbysC6qOFbE-23">
          <mxGeometry relative="1" as="geometry" />
        </mxCell>
        <mxCell id="4kDKlUOtYcbysC6qOFbE-14" value="" style="edgeStyle=orthogonalEdgeStyle;rounded=0;orthogonalLoop=1;jettySize=auto;html=1;" edge="1" parent="1" source="4kDKlUOtYcbysC6qOFbE-15" target="4kDKlUOtYcbysC6qOFbE-25">
          <mxGeometry relative="1" as="geometry" />
        </mxCell>
        <mxCell id="4kDKlUOtYcbysC6qOFbE-15" value="Azure AI Foundry" style="whiteSpace=wrap;html=1;rounded=0;" vertex="1" parent="1">
          <mxGeometry x="1020" y="370" width="430" height="60" as="geometry" />
        </mxCell>
        <mxCell id="4kDKlUOtYcbysC6qOFbE-16" value="Foundation models" style="whiteSpace=wrap;html=1;rounded=0;" vertex="1" parent="1">
          <mxGeometry x="980" y="520" width="120" height="60" as="geometry" />
        </mxCell>
        <mxCell id="4kDKlUOtYcbysC6qOFbE-17" value="Custom Generative AI Models" style="whiteSpace=wrap;html=1;rounded=0;" vertex="1" parent="1">
          <mxGeometry x="1130" y="520" width="120" height="60" as="geometry" />
        </mxCell>
        <mxCell id="4kDKlUOtYcbysC6qOFbE-18" value="Mulitmodal models" style="whiteSpace=wrap;html=1;rounded=0;" vertex="1" parent="1">
          <mxGeometry x="1275" y="520" width="120" height="60" as="geometry" />
        </mxCell>
        <mxCell id="4kDKlUOtYcbysC6qOFbE-19" value="" style="edgeStyle=orthogonalEdgeStyle;rounded=0;orthogonalLoop=1;jettySize=auto;html=1;" edge="1" parent="1" source="4kDKlUOtYcbysC6qOFbE-20" target="4kDKlUOtYcbysC6qOFbE-21">
          <mxGeometry relative="1" as="geometry" />
        </mxCell>
        <mxCell id="4kDKlUOtYcbysC6qOFbE-20" value="Channels" style="whiteSpace=wrap;html=1;rounded=0;" vertex="1" parent="1">
          <mxGeometry x="385" y="330" width="120" height="60" as="geometry" />
        </mxCell>
        <mxCell id="4kDKlUOtYcbysC6qOFbE-21" value="End User" style="ellipse;whiteSpace=wrap;html=1;rounded=0;" vertex="1" parent="1">
          <mxGeometry x="405" y="170" width="80" height="80" as="geometry" />
        </mxCell>
        <mxCell id="4kDKlUOtYcbysC6qOFbE-22" value="" style="edgeStyle=orthogonalEdgeStyle;rounded=0;orthogonalLoop=1;jettySize=auto;html=1;" edge="1" parent="1" source="4kDKlUOtYcbysC6qOFbE-23" target="4kDKlUOtYcbysC6qOFbE-24">
          <mxGeometry relative="1" as="geometry" />
        </mxCell>
        <mxCell id="4kDKlUOtYcbysC6qOFbE-23" value="Horizontal LLM Agent" style="whiteSpace=wrap;html=1;rounded=0;" vertex="1" parent="1">
          <mxGeometry x="1175" y="310" width="120" height="60" as="geometry" />
        </mxCell>
        <mxCell id="4kDKlUOtYcbysC6qOFbE-24" value="Developer" style="ellipse;whiteSpace=wrap;html=1;rounded=0;" vertex="1" parent="1">
          <mxGeometry x="1195" y="170" width="80" height="80" as="geometry" />
        </mxCell>
        <mxCell id="4kDKlUOtYcbysC6qOFbE-25" value="Microsoft Fabric Healthcare Data Solutions" style="whiteSpace=wrap;html=1;rounded=0;" vertex="1" parent="1">
          <mxGeometry x="1500" y="370" width="120" height="60" as="geometry" />
        </mxCell>
        <mxCell id="4kDKlUOtYcbysC6qOFbE-26" style="edgeStyle=orthogonalEdgeStyle;rounded=0;orthogonalLoop=1;jettySize=auto;html=1;exitX=0.5;exitY=1;exitDx=0;exitDy=0;entryX=0.49;entryY=0.117;entryDx=0;entryDy=0;entryPerimeter=0;startArrow=classic;startFill=1;" edge="1" parent="1" source="4kDKlUOtYcbysC6qOFbE-6" target="4kDKlUOtYcbysC6qOFbE-7">
          <mxGeometry relative="1" as="geometry" />
        </mxCell>
        <mxCell id="4kDKlUOtYcbysC6qOFbE-27" value="" style="shape=flexArrow;endArrow=classic;startArrow=classic;html=1;rounded=0;" edge="1" parent="1">
          <mxGeometry width="100" height="100" relative="1" as="geometry">
            <mxPoint x="670" y="420" as="sourcePoint" />
            <mxPoint x="1170" y="330" as="targetPoint" />
          </mxGeometry>
        </mxCell>
      </root>
    </mxGraphModel>
  </diagram>
</mxfile>
